<?xml version="1.0" encoding="UTF-8"?>
<svg id="Layer_2" data-name="Layer 2" xmlns="http://www.w3.org/2000/svg" viewBox="0 0 96.53 96.61">
  <defs>
    <style>
      .cls-1 {
        fill: #000;
        stroke-width: 0px;
      }
    </style>
  </defs>
  <g id="Layer_1-2" data-name="Layer 1">
    <g id="y2k_Asset_by_Annorastd-63" data-name="y2k Asset by Annorastd-63">
      <path class="cls-1" d="M95.99,56.57c-6.03-1.15-12.63-2.3-17.8-6.03-1.44-2.58.86-4.88,2.58-6.89,4.31-6.03,7.75-11.49,9.48-18.66.29-2.01-.57-4.88-2.87-4.59-4.59,4.02-10.34,7.18-16.37,8.04-1.44.29-2.3-1.15-2.58-2.3-.86-8.04-3.16-15.79-6.32-22.97-.86-1.72-2.58-3.16-4.59-3.16-2.01.29-1.44,2.87-1.72,4.31-1.15,5.17-2.3,10.05-5.46,14.07-.86,1.15-2.3.57-3.45,0-7.18-5.17-13.78-9.76-22.11-12.06-1.44-.29-2.58.29-3.73.86s-.57,1.44-.57,2.01c3.16,5.46,7.18,10.05,8.04,16.37,0,1.44-1.15,2.3-2.3,2.3-8.33,1.15-15.79,3.16-23.26,6.6-2.01,1.15-3.73,3.45-2.58,5.74,6.03.86,11.77,2.01,17.23,5.46,1.15.57,1.72,1.72,1.15,2.87-3.16,5.46-7.18,10.05-9.76,15.79-1.15,2.58-2.01,4.88-2.87,7.47-.29,1.72.29,3.45,1.72,4.31.57.29,1.44.29,2.01-.29l.86-.86c.86-.29,1.44-.86,2.01-1.44,4.31-2.3,8.04-5.46,12.92-5.17.86,0,1.72,0,2.01,1.15.86,3.45.86,6.6,1.72,10.05.29,1.15.57,2.01.86,3.16,1.44,4.02,2.3,8.04,4.88,11.77.86,1.44,2.87,2.87,4.88,1.72,1.15-4.88,1.72-9.48,3.73-14.07,1.15-2.01,2.3-5.17,4.88-4.02,1.44.57,2.87,1.72,4.31,2.87,5.74,4.31,12.06,7.18,18.66,9.48,1.15.29,2.3,0,3.16-.57.57-.57,2.01-1.44,1.44-2.3-3.73-5.17-7.18-10.62-8.33-16.65.57-2.3,3.16-2.58,5.17-2.58,7.47-.86,14.36-3.16,21.25-6.6,1.44-.86,3.16-3.45,1.72-5.17Z"/>
    </g>
  </g>
</svg>